<svg version="1.0" xmlns="http://www.w3.org/2000/svg"
 width="192.000000pt" height="192.000000pt" viewBox="0 0 192.000000 192.000000"
 preserveAspectRatio="xMidYMid meet">

<g transform="translate(0.000000,192.000000) scale(0.100000,-0.100000)"
fill="#000000" stroke="none">
<path d="M881 1444 c-182 -49 -329 -214 -361 -406 -67 -397 328 -706 687 -538
62 29 173 122 173 145 0 12 -143 155 -155 155 -5 0 -27 -16 -51 -35 -24 -20
-59 -42 -78 -50 -40 -17 -166 -20 -166 -5 0 6 4 10 8 10 20 0 32 58 32 159 l0
107 63 22 c34 12 65 22 70 22 4 0 7 -25 7 -55 0 -54 -1 -55 -28 -55 -58 0 -86
-82 -40 -114 30 -21 50 -20 82 5 l26 20 0 172 0 171 28 -27 c15 -15 34 -27 42
-27 17 0 160 139 160 156 0 20 -95 101 -151 130 -108 54 -235 69 -348 38z
m274 -53 c61 -22 165 -93 165 -114 0 -7 -22 -35 -49 -61 l-50 -49 -35 31 c-76
67 -199 77 -302 27 -191 -94 -216 -393 -42 -521 37 -28 116 -54 163 -54 50 0
125 26 173 61 l44 32 51 -51 51 -51 -20 -22 c-125 -140 -386 -159 -554 -42
-69 49 -132 126 -161 200 -20 49 -24 76 -24 178 0 118 1 121 37 198 102 213
337 314 553 238z m-67 -187 c18 -5 22 -13 20 -32 -3 -21 -15 -29 -93 -57 l-90
-32 -3 -125 -3 -125 -26 0 c-17 0 -35 -10 -48 -27 l-22 -27 -15 23 c-82 128
-30 319 107 391 30 16 130 22 173 11z m22 -113 c0 -4 -32 -20 -70 -33 -85 -31
-89 -14 -4 18 67 26 74 27 74 15z"/>
</g>
</svg>
